<?xml version="1.0" encoding="UTF-8"?>
<svg width="114px" height="29px" viewBox="0 0 114 29" version="1.1" xmlns="http://www.w3.org/2000/svg" xmlns:xlink="http://www.w3.org/1999/xlink">
    <!-- Generator: Sketch 52.5 (67469) - http://www.bohemiancoding.com/sketch -->
    <title>CBRF_rus_logo_horizontal_10_cmyk Copy</title>
    <desc>Created with Sketch.</desc>
    <defs>
        <rect id="path-1" x="0" y="0" width="141.734" height="56.693"></rect>
        <rect id="path-3" x="0" y="0" width="141.734" height="56.693"></rect>
        <rect id="path-5" x="0" y="0" width="141.734" height="56.693"></rect>
        <rect id="path-7" x="0" y="0" width="141.734" height="56.693"></rect>
        <rect id="path-9" x="0" y="0" width="141.734" height="56.693"></rect>
        <rect id="path-11" x="0" y="0" width="141.734" height="56.693"></rect>
        <rect id="path-13" x="0" y="0" width="141.734" height="56.693"></rect>
        <rect id="path-15" x="0" y="0" width="141.734" height="56.693"></rect>
        <rect id="path-17" x="0" y="0" width="141.734" height="56.693"></rect>
        <rect id="path-19" x="0" y="0" width="141.734" height="56.693"></rect>
        <rect id="path-21" x="0" y="0" width="141.734" height="56.693"></rect>
        <rect id="path-23" x="0" y="0" width="141.734" height="56.693"></rect>
    </defs>
    <g id="Page-1" stroke="none" stroke-width="1" fill="none" fill-rule="evenodd">
        <g id="CBRF_rus_logo_horizontal_10_cmyk-Copy" transform="translate(-13.756836, -13.911133)">
            <g id="Clipped">
                <mask id="mask-2" fill="white">
                    <use xlink:href="#path-1"></use>
                </mask>
                <g id="SVGID_79_"></g>
                <path d="M28.375,14.174 C20.549,14.174 14.204,20.52 14.204,28.346 C14.204,36.173 20.549,42.519 28.375,42.519 C36.205,42.519 42.55,36.173 42.55,28.346 C42.55,20.52 36.205,14.174 28.375,14.174 M28.375,41.424 C21.152,41.424 15.299,35.569 15.299,28.346 C15.299,21.123 21.152,15.269 28.375,15.269 C35.6,15.269 41.454,21.123 41.454,28.346 C41.454,35.569 35.6,41.424 28.375,41.424" id="Shape" fill="#FFFFFF" fill-rule="nonzero" mask="url(#mask-2)"></path>
            </g>
            <g id="Clipped">
                <mask id="mask-4" fill="white">
                    <use xlink:href="#path-3"></use>
                </mask>
                <g id="SVGID_79_"></g>
                <path d="M28.375,38.976 C28.865,38.976 29.162,38.646 29.18,38.195 C29.287,38.398 29.426,38.536 29.635,38.578 C29.84,38.619 30.062,38.59 30.25,38.507 C30.445,38.424 30.594,38.288 30.686,38.098 C30.779,37.908 30.748,37.711 30.682,37.483 C30.912,37.815 31.303,37.901 31.646,37.741 C32.117,37.521 32.289,37.121 32.096,36.664 C31.514,35.282 30.936,33.925 30.352,32.543 C30.299,32.418 30.254,32.29 30.195,32.165 C30.144,32.055 30.109,31.974 30.061,31.906 C30.026,31.859 29.984,31.819 29.924,31.781 C30.827,31.881 31.261,32.237 31.501,32.395 C31.564,32.437 31.561,32.443 31.805,32.367 C31.917,32.331 32.041,32.353 32.129,32.402 C32.238,32.463 32.35,32.529 32.445,32.604 C32.77,32.857 33.1,33.101 33.406,33.374 C33.549,33.501 33.755,33.72 33.726,33.915 C33.703,34.099 33.259,34.52 33.127,34.645 C32.812,34.944 33.288,35.504 33.924,35.452 C33.754,35.274 33.714,35.123 33.735,34.989 C33.799,34.988 33.92,35 34.034,34.898 C34.171,34.774 34.109,34.41 34.237,34.286 C34.46,34.068 35.191,34.048 35.629,34.029 C35.812,34.022 36.005,33.972 35.991,33.686 C36.269,33.705 36.327,33.912 36.327,34.098 C36.565,33.962 36.771,33.314 35.888,33.165 C36.037,33.031 36.284,32.98 36.437,33.153 C36.58,32.915 36.218,32.448 35.564,32.712 C35.565,32.709 35.271,32.323 34.387,33.313 C34.276,33.229 34.165,33.147 34.064,33.053 C33.723,32.741 32.861,31.899 32.861,31.899 C32.861,31.425 32.79,30.507 32.164,29.957 C31.897,29.723 31.643,29.599 31.078,29.496 C31.078,29.496 31.351,29.068 31.394,28.9 C31.886,29.392 32.875,29.539 32.875,28.708 C33.681,29.516 34.43,29.081 34.43,28.574 C34.455,28.821 34.518,29.093 34.602,29.326 C34.703,29.597 35.072,30.638 36.025,30.638 C36.047,30.999 36.049,32.19 37.188,32.455 C37.236,32.468 37.299,32.484 37.33,32.522 C37.789,33.093 39.701,33.695 39.935,33.533 C39.786,33.427 39.552,33.286 39.515,32.614 C39.491,32.171 39.442,29.871 39.442,26.63 C39.442,25.484 39.319,21.769 35.646,21.251 C35.089,21.172 34.541,21.214 34.066,21.567 C33.42,22.049 33.102,22.863 33.482,23.783 C33.494,23.816 33.504,23.849 33.521,23.878 C33.65,24.097 33.598,24.287 33.43,24.454 C33.123,24.758 32.766,24.964 32.336,25.014 C32.064,25.045 31.84,24.926 31.66,24.74 C31.248,24.316 30.958,23.818 30.867,23.231 C30.693,22.113 30.973,21.559 30.989,21.524 C31.288,20.925 31.923,20.485 32.658,20.422 C32.995,19.792 33.962,20.041 33.962,20.041 C34.204,20.094 34.289,20.164 34.35,20.283 C34.35,20.283 34.774,19.636 34.374,19.377 C33.975,19.118 33.08,19.011 33.08,19.011 C33.08,18.59 32.384,18.262 31.126,18.487 C29.605,18.758 29.279,18.164 29.279,18.164 C29.216,18.892 29.771,19.267 29.95,19.369 C29.373,19.995 28.567,21.246 28.375,23.021 C28.183,21.246 27.377,19.995 26.8,19.369 C26.978,19.267 27.534,18.892 27.471,18.164 C27.471,18.164 27.144,18.758 25.623,18.487 C24.366,18.262 23.67,18.59 23.67,19.011 C23.67,19.011 22.775,19.118 22.375,19.377 C21.976,19.636 22.399,20.283 22.399,20.283 C22.461,20.164 22.546,20.094 22.788,20.041 C22.788,20.041 23.755,19.792 24.092,20.422 C24.827,20.485 25.462,20.925 25.761,21.524 C25.777,21.559 26.074,22.118 25.883,23.231 C25.782,23.817 25.502,24.316 25.09,24.74 C24.91,24.926 24.686,25.045 24.414,25.014 C23.984,24.964 23.627,24.758 23.32,24.454 C23.152,24.287 23.1,24.097 23.229,23.878 C23.246,23.849 23.256,23.816 23.268,23.783 C23.648,22.863 23.33,22.049 22.684,21.567 C22.209,21.214 21.661,21.172 21.104,21.251 C17.431,21.769 17.307,25.484 17.307,26.63 C17.307,29.871 17.258,32.171 17.234,32.614 C17.197,33.286 16.963,33.426 16.814,33.533 C17.049,33.695 18.96,33.094 19.42,32.522 C19.451,32.484 19.514,32.467 19.562,32.455 C20.701,32.189 20.703,30.999 20.725,30.638 C21.678,30.638 22.047,29.597 22.148,29.326 C22.232,29.093 22.295,28.821 22.32,28.574 C22.32,29.081 23.069,29.515 23.875,28.708 C23.875,29.539 24.864,29.393 25.356,28.9 C25.399,29.068 25.672,29.496 25.672,29.496 C25.107,29.599 24.853,29.723 24.585,29.957 C23.96,30.508 23.889,31.426 23.889,31.899 C23.889,31.899 23.027,32.742 22.686,33.053 C22.585,33.147 22.474,33.229 22.363,33.313 C21.479,32.324 21.184,32.709 21.186,32.712 C20.532,32.448 20.17,32.915 20.313,33.153 C20.465,32.98 20.713,33.031 20.862,33.165 C19.979,33.313 20.184,33.962 20.423,34.098 C20.423,33.911 20.48,33.704 20.759,33.686 C20.745,33.972 20.938,34.022 21.121,34.029 C21.558,34.048 22.289,34.068 22.513,34.286 C22.64,34.41 22.578,34.774 22.716,34.898 C22.83,35 22.951,34.988 23.014,34.989 C23.035,35.123 22.996,35.274 22.826,35.452 C23.462,35.505 23.938,34.944 23.623,34.645 C23.491,34.52 23.046,34.098 23.024,33.915 C22.995,33.72 23.201,33.501 23.344,33.374 C23.65,33.102 23.98,32.857 24.305,32.604 C24.4,32.529 24.512,32.462 24.621,32.402 C24.709,32.353 24.832,32.331 24.945,32.367 C25.189,32.443 25.186,32.437 25.249,32.395 C25.488,32.237 25.923,31.88 26.826,31.781 C26.765,31.819 26.723,31.859 26.688,31.906 C26.64,31.973 26.606,32.054 26.555,32.165 C26.496,32.29 26.451,32.418 26.398,32.543 C25.814,33.925 25.236,35.282 24.654,36.664 C24.461,37.121 24.633,37.521 25.104,37.741 C25.447,37.901 25.838,37.815 26.068,37.483 C26.002,37.712 25.971,37.908 26.064,38.098 C26.156,38.288 26.305,38.424 26.5,38.507 C26.688,38.59 26.91,38.619 27.115,38.578 C27.324,38.536 27.463,38.398 27.57,38.195 C27.588,38.646 27.885,38.976 28.375,38.976" id="Path" fill="#FFFFFF" mask="url(#mask-4)"></path>
            </g>
            <g id="Clipped">
                <mask id="mask-6" fill="white">
                    <use xlink:href="#path-5"></use>
                </mask>
                <g id="SVGID_79_"></g>
                <path d="M52.311,23.397 C53.092,23.397 54.686,23.327 55.597,23.272 C55.57,23.44 55.555,23.706 55.555,23.776 C55.555,23.873 55.584,24.098 55.597,24.251 C54.784,24.139 53.441,24.056 53.024,24.056 C52.731,24.056 51.595,24.083 50.98,24.139 L50.98,27.654 L51.693,27.654 C53.151,27.654 56.217,27.933 56.217,30.466 C56.217,32.523 54.494,33.461 52.228,33.447 C51.974,33.447 51.024,33.406 50.418,33.406 C50.155,33.406 49.833,33.42 49.608,33.447 C49.694,31.906 49.72,29.779 49.72,28.015 C49.72,26.434 49.709,24.04 49.608,23.271 C50.504,23.314 51.986,23.397 52.311,23.397 Z M50.98,32.636 C51.344,32.65 51.776,32.664 52.169,32.664 C53.822,32.664 54.784,31.893 54.784,30.451 C54.784,28.898 53.639,28.393 50.98,28.393 L50.98,32.636 Z" id="Shape" fill="#FFFFFF" fill-rule="nonzero" mask="url(#mask-6)"></path>
            </g>
            <g id="Clipped">
                <mask id="mask-8" fill="white">
                    <use xlink:href="#path-7"></use>
                </mask>
                <g id="SVGID_79_"></g>
                <path d="M57.803,27.19 C58.35,26.52 59.356,26.227 60.199,26.227 C61.669,26.227 62.689,26.952 62.689,28.702 L62.689,32.174 C62.689,32.889 62.842,33.056 63.135,33.056 C63.236,33.056 63.389,33.027 63.472,32.999 L63.555,33.336 C63.109,33.56 62.689,33.603 62.506,33.603 C62.045,33.603 61.752,33.393 61.639,32.986 L61.556,32.68 C60.8,33.281 59.974,33.603 59.288,33.603 C58.013,33.603 57.186,32.93 57.186,31.754 C57.186,30.494 58.126,29.905 59.413,29.669 L60.839,29.402 C61.317,29.318 61.571,29.178 61.571,28.829 C61.571,27.304 60.926,26.912 59.862,26.912 C59.037,26.912 58.419,27.15 57.972,28.061 L57.803,28.061 L57.803,27.19 Z M61.571,29.836 L60.645,29.975 C59.637,30.13 58.516,30.479 58.516,31.545 C58.516,32.356 58.966,32.79 59.874,32.79 C60.435,32.79 60.995,32.593 61.571,31.992 L61.571,29.836 Z" id="Shape" fill="#FFFFFF" fill-rule="nonzero" mask="url(#mask-8)"></path>
            </g>
            <g id="Clipped">
                <mask id="mask-10" fill="white">
                    <use xlink:href="#path-9"></use>
                </mask>
                <g id="SVGID_79_"></g>
                <path d="M65.474,26.408 C65.628,26.408 65.92,26.38 66.13,26.366 C66.019,27.429 66.003,29.192 66.003,29.262 C66.592,29.291 67.444,29.32 67.896,29.32 C68.357,29.32 69.239,29.292 69.659,29.262 C69.659,29.179 69.644,27.416 69.534,26.366 C69.768,26.38 70.078,26.408 70.245,26.408 C70.401,26.408 70.694,26.38 70.904,26.366 C70.791,27.416 70.777,29.178 70.777,29.906 C70.777,30.494 70.791,32.384 70.904,33.448 C70.694,33.421 70.471,33.407 70.259,33.407 C70.022,33.407 69.741,33.421 69.533,33.448 C69.643,32.384 69.658,30.494 69.658,30.048 C69.042,30.004 68.202,29.949 67.88,29.949 C67.499,29.949 66.565,29.974 66.002,30.017 C66.002,30.494 66.018,32.383 66.129,33.448 C65.919,33.421 65.695,33.407 65.486,33.407 C65.248,33.407 64.968,33.421 64.757,33.448 C64.868,32.384 64.882,30.494 64.882,29.906 C64.882,29.192 64.868,27.416 64.757,26.366 C64.995,26.379 65.305,26.408 65.474,26.408" id="Path" fill="#FFFFFF" mask="url(#mask-10)"></path>
            </g>
            <g id="Clipped">
                <mask id="mask-12" fill="white">
                    <use xlink:href="#path-11"></use>
                </mask>
                <g id="SVGID_79_"></g>
                <path d="M73.521,26.408 C73.671,26.408 73.966,26.38 74.173,26.366 C74.065,27.416 74.052,29.192 74.052,29.446 L74.278,29.446 C74.739,29.446 77.104,26.757 77.329,26.366 C77.524,26.38 77.844,26.408 78.012,26.408 C78.155,26.408 78.491,26.38 78.7,26.366 L75.355,29.361 C75.777,29.864 77.999,32.371 79.006,33.448 C78.63,33.421 78.364,33.407 78.168,33.407 C77.915,33.407 77.537,33.421 77.244,33.448 C76.726,32.636 75.144,30.775 74.278,29.822 L74.052,29.822 C74.052,30.341 74.065,32.384 74.173,33.448 C73.966,33.421 73.745,33.407 73.532,33.407 C73.297,33.407 73.017,33.421 72.803,33.448 C72.918,32.384 72.934,30.494 72.934,29.906 C72.934,29.192 72.918,27.416 72.803,26.366 C73.044,26.379 73.353,26.408 73.521,26.408" id="Path" fill="#FFFFFF" mask="url(#mask-12)"></path>
            </g>
            <g id="Clipped">
                <mask id="mask-14" fill="white">
                    <use xlink:href="#path-13"></use>
                </mask>
                <g id="SVGID_79_"></g>
                <path d="M85.191,23.314 C85.678,23.314 86.311,23.272 86.672,23.272 C89.262,23.272 90.272,24.056 90.272,25.818 C90.272,28.102 88.352,28.828 86.075,28.828 C85.948,28.828 85.414,28.801 85.147,28.772 L85.147,31.192 C85.147,31.892 85.175,32.747 85.261,33.447 C85.023,33.42 84.785,33.406 84.546,33.406 C84.292,33.406 83.999,33.42 83.775,33.447 C83.861,31.907 83.889,29.778 83.889,28.015 C83.889,26.434 83.875,24.04 83.775,23.271 C84.239,23.284 84.869,23.314 85.191,23.314 M85.736,28.087 C87.696,28.087 88.844,27.303 88.844,25.818 C88.844,24.433 87.752,24.056 86.394,24.056 C86.158,24.056 85.344,24.069 85.147,24.098 L85.147,28.029 C85.318,28.06 85.596,28.087 85.736,28.087" id="Shape" fill="#FFFFFF" fill-rule="nonzero" mask="url(#mask-14)"></path>
            </g>
            <g id="Clipped">
                <mask id="mask-16" fill="white">
                    <use xlink:href="#path-15"></use>
                </mask>
                <g id="SVGID_79_"></g>
                <path d="M97.562,29.864 C97.562,32.007 96.172,33.602 93.978,33.602 C91.823,33.602 90.477,32.021 90.477,30.061 C90.477,27.738 91.96,26.227 94.103,26.227 C96.231,26.227 97.562,27.766 97.562,29.864 M91.808,30.018 C91.808,31.6 92.466,33.055 93.949,33.055 C95.377,33.055 96.232,31.683 96.232,29.808 C96.232,28.296 95.643,26.771 94.061,26.771 C92.549,26.771 91.808,28.353 91.808,30.018" id="Shape" fill="#FFFFFF" fill-rule="nonzero" mask="url(#mask-16)"></path>
            </g>
            <g id="Clipped">
                <mask id="mask-18" fill="white">
                    <use xlink:href="#path-17"></use>
                </mask>
                <g id="SVGID_79_"></g>
                <path d="M104.422,27.89 L104.253,27.89 C103.763,27.093 103.078,26.771 102.308,26.771 C100.669,26.771 99.886,28.353 99.886,29.892 C99.886,31.669 100.864,33.055 102.601,33.055 C103.177,33.055 103.694,32.972 104.505,32.089 L104.632,32.243 L104.463,32.929 C103.788,33.378 103.036,33.602 102.168,33.602 C99.983,33.602 98.556,32.076 98.556,29.92 C98.556,27.667 100.096,26.227 102.349,26.227 C103.078,26.227 103.874,26.366 104.771,26.842 L104.422,27.89 Z" id="Path" fill="#FFFFFF" mask="url(#mask-18)"></path>
            </g>
            <g id="Clipped">
                <mask id="mask-20" fill="white">
                    <use xlink:href="#path-19"></use>
                </mask>
                <g id="SVGID_79_"></g>
                <path d="M111.486,27.89 L111.32,27.89 C110.832,27.093 110.146,26.771 109.377,26.771 C107.737,26.771 106.953,28.353 106.953,29.892 C106.953,31.669 107.936,33.055 109.67,33.055 C110.241,33.055 110.761,32.972 111.572,32.089 L111.696,32.243 L111.53,32.929 C110.859,33.378 110.101,33.602 109.235,33.602 C107.052,33.602 105.625,32.076 105.625,29.92 C105.625,27.667 107.166,26.227 109.419,26.227 C110.147,26.227 110.944,26.366 111.84,26.842 L111.486,27.89 Z" id="Path" fill="#FFFFFF" mask="url(#mask-20)"></path>
            </g>
            <g id="Clipped">
                <mask id="mask-22" fill="white">
                    <use xlink:href="#path-21"></use>
                </mask>
                <g id="SVGID_79_"></g>
                <path d="M113.562,33.407 C113.477,33.407 113.225,33.432 113.113,33.448 C113.225,32.384 113.24,30.494 113.24,29.906 C113.24,29.192 113.225,27.416 113.113,26.366 C113.352,26.38 113.658,26.408 113.826,26.408 C113.98,26.408 114.273,26.38 114.485,26.366 C114.373,27.416 114.361,29.178 114.361,29.906 C114.361,30.494 114.373,31.319 114.386,31.712 C115.157,30.775 117.901,27.29 118.56,26.366 C118.709,26.393 118.808,26.408 118.977,26.408 C119.06,26.408 119.353,26.38 119.51,26.366 C119.397,27.416 119.381,29.178 119.381,29.906 C119.381,30.494 119.397,32.384 119.51,33.448 C119.298,33.421 119.074,33.407 118.866,33.407 C118.627,33.407 118.349,33.421 118.136,33.448 C118.248,32.384 118.264,30.494 118.264,29.906 C118.264,29.177 118.248,28.284 118.238,27.988 C117.283,28.955 114.762,32.259 113.967,33.448 C113.839,33.42 113.712,33.407 113.562,33.407" id="Path" fill="#FFFFFF" mask="url(#mask-22)"></path>
            </g>
            <g id="Clipped">
                <mask id="mask-24" fill="white">
                    <use xlink:href="#path-23"></use>
                </mask>
                <g id="SVGID_79_"></g>
                <path d="M121.488,33.407 C121.403,33.407 121.151,33.432 121.042,33.448 C121.151,32.384 121.166,30.494 121.166,29.906 C121.166,29.192 121.151,27.416 121.042,26.366 C121.278,26.38 121.584,26.408 121.752,26.408 C121.906,26.408 122.201,26.38 122.411,26.366 C122.299,27.416 122.287,29.178 122.287,29.906 C122.287,30.494 122.299,31.319 122.312,31.712 C123.083,30.775 125.824,27.29 126.482,26.366 C126.636,26.393 126.735,26.408 126.903,26.408 C126.986,26.408 127.282,26.38 127.434,26.366 C127.326,27.416 127.31,29.178 127.31,29.906 C127.31,30.494 127.326,32.384 127.434,33.448 C127.224,33.421 127,33.407 126.79,33.407 C126.553,33.407 126.271,33.421 126.064,33.448 C126.176,32.384 126.188,30.494 126.188,29.906 C126.188,29.177 126.176,28.284 126.163,27.988 C125.211,28.955 122.687,32.259 121.89,33.448 C121.766,33.42 121.639,33.407 121.488,33.407" id="Path" fill="#FFFFFF" mask="url(#mask-24)"></path>
            </g>
        </g>
    </g>
</svg>